<svg xmlns="http://www.w3.org/2000/svg" xmlns:xlink="http://www.w3.org/1999/xlink" width="500" zoomAndPan="magnify" viewBox="0 0 375 374.999991" height="500" preserveAspectRatio="xMidYMid meet" version="1.0"><defs><g/><clipPath id="3844aab5c3"><path d="M 155 121.542969 L 205 121.542969 L 205 138 L 155 138 Z M 155 121.542969 " clip-rule="nonzero"/></clipPath></defs><rect x="-37.5" width="450" fill="#ffffff" y="-37.499999" height="449.999989" fill-opacity="1"/><path fill="#19243d" d="M 234.441406 136.449219 L 271.867188 167.089844 L 217.394531 167.089844 L 183.953125 139.707031 L 152.828125 165.5 C 150.40625 164.925781 147.996094 164.375 145.605469 163.851562 L 178.675781 136.449219 L 211.925781 136.449219 L 211.925781 127.625 L 210.925781 127.625 L 210.925781 126.074219 L 218.265625 126.074219 L 218.265625 127.625 L 217.242188 127.625 L 217.242188 136.449219 Z M 234.441406 136.449219 " fill-opacity="1" fill-rule="evenodd"/><path fill="#bc1823" d="M 71.46875 180.058594 C 94.722656 136.964844 178.4375 181.570312 231.394531 184.507812 C 266.988281 186.480469 295.6875 184.9375 268.191406 158.929688 C 308.28125 188.039062 274.671875 207.277344 230.847656 204.238281 C 177.457031 200.535156 102.457031 148.449219 71.46875 180.058594 Z M 71.46875 180.058594 " fill-opacity="1" fill-rule="evenodd"/><path fill="#19243d" d="M 119.863281 150.445312 L 122.695312 150.445312 L 122.695312 153.273438 L 119.863281 153.273438 Z M 123.523438 154.105469 L 126.355469 154.105469 L 126.355469 156.933594 L 123.523438 156.933594 Z M 119.863281 154.105469 L 122.695312 154.105469 L 122.695312 156.933594 L 119.863281 156.933594 Z M 123.523438 150.445312 L 126.355469 150.445312 L 126.355469 153.273438 L 123.523438 153.273438 Z M 123.523438 150.445312 " fill-opacity="1" fill-rule="evenodd"/><path fill="#bc1823" d="M 163.546875 138.480469 L 168.324219 142.394531 L 146.734375 160.285156 L 123.277344 141.082031 L 100.945312 159.589844 C 97.449219 160 94.144531 160.691406 91.054688 161.695312 L 119.066406 138.480469 L 129.566406 138.480469 L 129.566406 133.429688 L 128.835938 133.429688 L 128.835938 132.0625 L 135.320312 132.0625 L 135.320312 133.429688 L 134.621094 133.429688 L 134.621094 138.480469 Z M 163.546875 138.480469 " fill-opacity="1" fill-rule="evenodd"/><path fill="#bc1823" d="M 70.46875 192.089844 C 66.695312 162.046875 138.082031 178.40625 161.832031 188.320312 C 130.0625 180.160156 82.578125 173.980469 70.46875 192.089844 Z M 70.46875 192.089844 " fill-opacity="1" fill-rule="evenodd"/><path fill="#bc1823" d="M 272.792969 168.164062 C 289.695312 192.117188 197.476562 180.070312 173.730469 170.15625 C 203.347656 176.546875 276.527344 184.546875 272.792969 168.164062 Z M 272.792969 168.164062 " fill-opacity="1" fill-rule="evenodd"/><path fill="#19243d" d="M 179.25 149.992188 L 183.175781 149.992188 L 183.175781 153.921875 L 179.25 153.921875 Z M 184.332031 155.078125 L 188.257812 155.078125 L 188.257812 159.003906 L 184.332031 159.003906 Z M 179.25 155.078125 L 183.175781 155.078125 L 183.175781 159.003906 L 179.25 159.003906 Z M 184.332031 149.992188 L 188.257812 149.992188 L 188.257812 153.921875 L 184.332031 153.921875 Z M 184.332031 149.992188 " fill-opacity="1" fill-rule="evenodd"/><g clip-path="url(#3844aab5c3)"><path fill="#19243d" d="M 191.132812 124.5 L 204.316406 135.292969 L 185.125 135.292969 L 173.34375 125.648438 L 159.136719 137.371094 L 155.890625 137.371094 L 171.484375 124.5 L 176.667969 124.5 L 176.667969 122.320312 L 176.195312 122.320312 L 176.195312 121.542969 L 179.867188 121.542969 L 179.867188 122.320312 L 179.554688 122.320312 L 179.554688 124.5 Z M 191.132812 124.5 " fill-opacity="1" fill-rule="evenodd"/></g><g fill="#19243d" fill-opacity="1"><g transform="translate(61.823438, 230.355453)"><g><path d="M 8.140625 -16.984375 C 10.648438 -16.984375 12.859375 -16.363281 14.765625 -15.125 L 13.15625 -11.78125 C 12.269531 -12.289062 11.320312 -12.707031 10.3125 -13.03125 C 9.3125 -13.363281 8.46875 -13.53125 7.78125 -13.53125 C 6.539062 -13.53125 5.921875 -13.125 5.921875 -12.3125 C 5.921875 -11.78125 6.222656 -11.351562 6.828125 -11.03125 C 7.441406 -10.71875 8.1875 -10.441406 9.0625 -10.203125 C 9.9375 -9.972656 10.804688 -9.691406 11.671875 -9.359375 C 12.546875 -9.035156 13.285156 -8.503906 13.890625 -7.765625 C 14.503906 -7.035156 14.8125 -6.109375 14.8125 -4.984375 C 14.8125 -3.367188 14.175781 -2.109375 12.90625 -1.203125 C 11.644531 -0.304688 10.039062 0.140625 8.09375 0.140625 C 6.695312 0.140625 5.316406 -0.0976562 3.953125 -0.578125 C 2.597656 -1.054688 1.414062 -1.710938 0.40625 -2.546875 L 2.0625 -5.828125 C 2.914062 -5.097656 3.914062 -4.492188 5.0625 -4.015625 C 6.21875 -3.546875 7.242188 -3.3125 8.140625 -3.3125 C 8.828125 -3.3125 9.359375 -3.4375 9.734375 -3.6875 C 10.117188 -3.9375 10.3125 -4.300781 10.3125 -4.78125 C 10.3125 -5.238281 10.09375 -5.625 9.65625 -5.9375 C 9.21875 -6.25 8.671875 -6.476562 8.015625 -6.625 C 7.359375 -6.78125 6.644531 -6.984375 5.875 -7.234375 C 5.113281 -7.492188 4.40625 -7.773438 3.75 -8.078125 C 3.09375 -8.390625 2.539062 -8.875 2.09375 -9.53125 C 1.65625 -10.195312 1.4375 -10.992188 1.4375 -11.921875 C 1.4375 -13.460938 2.046875 -14.691406 3.265625 -15.609375 C 4.492188 -16.523438 6.117188 -16.984375 8.140625 -16.984375 Z M 8.140625 -16.984375 "/></g></g></g><g fill="#19243d" fill-opacity="1"><g transform="translate(77.879472, 230.355453)"><g><path d="M 1.6875 -16.796875 L 9 -16.796875 C 11.144531 -16.796875 12.804688 -16.285156 13.984375 -15.265625 C 15.171875 -14.253906 15.765625 -12.8125 15.765625 -10.9375 C 15.765625 -8.96875 15.171875 -7.441406 13.984375 -6.359375 C 12.804688 -5.273438 11.144531 -4.734375 9 -4.734375 L 5.953125 -4.734375 L 5.953125 0 L 1.6875 0 Z M 5.953125 -13.4375 L 5.953125 -8.09375 L 8.78125 -8.09375 C 9.726562 -8.09375 10.457031 -8.320312 10.96875 -8.78125 C 11.476562 -9.25 11.734375 -9.921875 11.734375 -10.796875 C 11.734375 -11.660156 11.476562 -12.316406 10.96875 -12.765625 C 10.457031 -13.210938 9.726562 -13.4375 8.78125 -13.4375 Z M 5.953125 -13.4375 "/></g></g></g><g fill="#19243d" fill-opacity="1"><g transform="translate(94.799501, 230.355453)"><g><path d="M 9.640625 -16.9375 C 12.253906 -16.9375 14.425781 -16.125 16.15625 -14.5 C 17.882812 -12.882812 18.75 -10.859375 18.75 -8.421875 C 18.75 -5.972656 17.878906 -3.925781 16.140625 -2.28125 C 14.398438 -0.632812 12.234375 0.1875 9.640625 0.1875 C 7.054688 0.1875 4.898438 -0.628906 3.171875 -2.265625 C 1.441406 -3.910156 0.578125 -5.960938 0.578125 -8.421875 C 0.578125 -10.867188 1.441406 -12.898438 3.171875 -14.515625 C 4.898438 -16.128906 7.054688 -16.9375 9.640625 -16.9375 Z M 9.703125 -13.375 C 8.390625 -13.375 7.265625 -12.894531 6.328125 -11.9375 C 5.398438 -10.988281 4.9375 -9.804688 4.9375 -8.390625 C 4.9375 -6.984375 5.40625 -5.796875 6.34375 -4.828125 C 7.28125 -3.867188 8.394531 -3.390625 9.6875 -3.390625 C 10.988281 -3.390625 12.09375 -3.867188 13 -4.828125 C 13.90625 -5.796875 14.359375 -6.984375 14.359375 -8.390625 C 14.359375 -9.804688 13.90625 -10.988281 13 -11.9375 C 12.09375 -12.894531 10.992188 -13.375 9.703125 -13.375 Z M 9.703125 -13.375 "/></g></g></g><g fill="#19243d" fill-opacity="1"><g transform="translate(114.719538, 230.355453)"><g><path d="M 12.625 0 L 8.1875 -6.59375 L 5.953125 -4.125 L 5.953125 0 L 1.6875 0 L 1.6875 -16.796875 L 5.953125 -16.796875 L 5.953125 -9.53125 L 12.390625 -16.796875 L 17.328125 -16.796875 L 11.09375 -9.84375 L 17.734375 0 Z M 12.625 0 "/></g></g></g><g fill="#19243d" fill-opacity="1"><g transform="translate(133.247579, 230.355453)"><g><path d="M 12.84375 -3.09375 L 5.5 -3.09375 L 4.265625 0 L -0.125 0 L 7.125 -16.796875 L 11.515625 -16.796875 L 18.59375 0 L 14.046875 0 Z M 11.59375 -6.34375 L 9.1875 -12.546875 L 6.75 -6.34375 Z M 11.59375 -6.34375 "/></g></g></g><g fill="#19243d" fill-opacity="1"><g transform="translate(152.327613, 230.355453)"><g><path d="M 17.1875 0 L 13.421875 0 L 5.6875 -10.34375 L 5.6875 0 L 1.6875 0 L 1.6875 -16.796875 L 5.453125 -16.796875 L 13.203125 -6.4375 L 13.203125 -16.796875 L 17.1875 -16.796875 Z M 17.1875 0 "/></g></g></g><g fill="#19243d" fill-opacity="1"><g transform="translate(171.791655, 230.355453)"><g><path d="M 14.828125 -13.4375 L 5.953125 -13.4375 L 5.953125 -10.109375 L 13.96875 -10.109375 L 13.96875 -6.75 L 5.953125 -6.75 L 5.953125 -3.359375 L 15.09375 -3.359375 L 15.09375 0 L 1.6875 0 L 1.6875 -16.796875 L 14.828125 -16.796875 Z M 14.828125 -13.4375 "/></g></g></g><g fill="#19243d" fill-opacity="1"><g transform="translate(188.567685, 230.355453)"><g/></g></g><g fill="#19243d" fill-opacity="1"><g transform="translate(194.735696, 230.355453)"><g><path d="M 11.8125 0 L 9.3125 -4.734375 L 5.953125 -4.734375 L 5.953125 0 L 1.6875 0 L 1.6875 -16.796875 L 9.1875 -16.796875 C 11.414062 -16.796875 13.132812 -16.285156 14.34375 -15.265625 C 15.5625 -14.253906 16.171875 -12.8125 16.171875 -10.9375 C 16.171875 -8.351562 15.15625 -6.554688 13.125 -5.546875 L 16.65625 0 Z M 5.953125 -8.09375 L 9.1875 -8.09375 C 10.113281 -8.09375 10.832031 -8.320312 11.34375 -8.78125 C 11.863281 -9.25 12.125 -9.921875 12.125 -10.796875 C 12.125 -11.660156 11.863281 -12.316406 11.34375 -12.765625 C 10.832031 -13.210938 10.113281 -13.4375 9.1875 -13.4375 L 5.953125 -13.4375 Z M 5.953125 -8.09375 "/></g></g></g><g fill="#19243d" fill-opacity="1"><g transform="translate(212.711731, 230.355453)"><g><path d="M 9.640625 -16.9375 C 12.253906 -16.9375 14.425781 -16.125 16.15625 -14.5 C 17.882812 -12.882812 18.75 -10.859375 18.75 -8.421875 C 18.75 -5.972656 17.878906 -3.925781 16.140625 -2.28125 C 14.398438 -0.632812 12.234375 0.1875 9.640625 0.1875 C 7.054688 0.1875 4.898438 -0.628906 3.171875 -2.265625 C 1.441406 -3.910156 0.578125 -5.960938 0.578125 -8.421875 C 0.578125 -10.867188 1.441406 -12.898438 3.171875 -14.515625 C 4.898438 -16.128906 7.054688 -16.9375 9.640625 -16.9375 Z M 9.703125 -13.375 C 8.390625 -13.375 7.265625 -12.894531 6.328125 -11.9375 C 5.398438 -10.988281 4.9375 -9.804688 4.9375 -8.390625 C 4.9375 -6.984375 5.40625 -5.796875 6.34375 -4.828125 C 7.28125 -3.867188 8.394531 -3.390625 9.6875 -3.390625 C 10.988281 -3.390625 12.09375 -3.867188 13 -4.828125 C 13.90625 -5.796875 14.359375 -6.984375 14.359375 -8.390625 C 14.359375 -9.804688 13.90625 -10.988281 13 -11.9375 C 12.09375 -12.894531 10.992188 -13.375 9.703125 -13.375 Z M 9.703125 -13.375 "/></g></g></g><g fill="#19243d" fill-opacity="1"><g transform="translate(232.631773, 230.355453)"><g><path d="M 9.640625 -16.9375 C 12.253906 -16.9375 14.425781 -16.125 16.15625 -14.5 C 17.882812 -12.882812 18.75 -10.859375 18.75 -8.421875 C 18.75 -5.972656 17.878906 -3.925781 16.140625 -2.28125 C 14.398438 -0.632812 12.234375 0.1875 9.640625 0.1875 C 7.054688 0.1875 4.898438 -0.628906 3.171875 -2.265625 C 1.441406 -3.910156 0.578125 -5.960938 0.578125 -8.421875 C 0.578125 -10.867188 1.441406 -12.898438 3.171875 -14.515625 C 4.898438 -16.128906 7.054688 -16.9375 9.640625 -16.9375 Z M 9.703125 -13.375 C 8.390625 -13.375 7.265625 -12.894531 6.328125 -11.9375 C 5.398438 -10.988281 4.9375 -9.804688 4.9375 -8.390625 C 4.9375 -6.984375 5.40625 -5.796875 6.34375 -4.828125 C 7.28125 -3.867188 8.394531 -3.390625 9.6875 -3.390625 C 10.988281 -3.390625 12.09375 -3.867188 13 -4.828125 C 13.90625 -5.796875 14.359375 -6.984375 14.359375 -8.390625 C 14.359375 -9.804688 13.90625 -10.988281 13 -11.9375 C 12.09375 -12.894531 10.992188 -13.375 9.703125 -13.375 Z M 9.703125 -13.375 "/></g></g></g><g fill="#19243d" fill-opacity="1"><g transform="translate(252.551816, 230.355453)"><g><path d="M 14.140625 -13.4375 L 5.953125 -13.4375 L 5.953125 -9.546875 L 13.484375 -9.546875 L 13.484375 -6.1875 L 5.953125 -6.1875 L 5.953125 0 L 1.6875 0 L 1.6875 -16.796875 L 14.140625 -16.796875 Z M 14.140625 -13.4375 "/></g></g></g><g fill="#19243d" fill-opacity="1"><g transform="translate(267.647842, 230.355453)"><g><path d="M 5.953125 0 L 1.6875 0 L 1.6875 -16.796875 L 5.953125 -16.796875 Z M 5.953125 0 "/></g></g></g><g fill="#19243d" fill-opacity="1"><g transform="translate(275.879852, 230.355453)"><g><path d="M 17.1875 0 L 13.421875 0 L 5.6875 -10.34375 L 5.6875 0 L 1.6875 0 L 1.6875 -16.796875 L 5.453125 -16.796875 L 13.203125 -6.4375 L 13.203125 -16.796875 L 17.1875 -16.796875 Z M 17.1875 0 "/></g></g></g><g fill="#19243d" fill-opacity="1"><g transform="translate(295.343893, 230.355453)"><g><path d="M 12.84375 -8.546875 L 16.53125 -8.546875 L 16.53125 -1.984375 C 15.625 -1.347656 14.523438 -0.828125 13.234375 -0.421875 C 11.941406 -0.015625 10.710938 0.1875 9.546875 0.1875 C 6.992188 0.1875 4.859375 -0.628906 3.140625 -2.265625 C 1.429688 -3.910156 0.578125 -5.957031 0.578125 -8.40625 C 0.578125 -10.832031 1.457031 -12.859375 3.21875 -14.484375 C 4.976562 -16.117188 7.1875 -16.9375 9.84375 -16.9375 C 11.09375 -16.9375 12.332031 -16.710938 13.5625 -16.265625 C 14.789062 -15.816406 15.835938 -15.210938 16.703125 -14.453125 L 14.296875 -11.546875 C 13.691406 -12.109375 12.988281 -12.550781 12.1875 -12.875 C 11.382812 -13.207031 10.59375 -13.375 9.8125 -13.375 C 8.4375 -13.375 7.28125 -12.894531 6.34375 -11.9375 C 5.40625 -10.988281 4.9375 -9.8125 4.9375 -8.40625 C 4.9375 -6.976562 5.410156 -5.785156 6.359375 -4.828125 C 7.304688 -3.867188 8.472656 -3.390625 9.859375 -3.390625 C 10.753906 -3.390625 11.75 -3.660156 12.84375 -4.203125 Z M 12.84375 -8.546875 "/></g></g></g></svg>